<?xml version="1.0" encoding="UTF-8"?>
<!DOCTYPE svg PUBLIC "-//W3C//DTD SVG 1.1//EN" "http://www.w3.org/Graphics/SVG/1.1/DTD/svg11.dtd">
<!-- Creator: CorelDRAW X7 -->
<svg xmlns="http://www.w3.org/2000/svg" xml:space="preserve" width="80px" height="89px" version="1.1" style="shape-rendering:geometricPrecision; text-rendering:geometricPrecision; image-rendering:optimizeQuality; fill-rule:evenodd; clip-rule:evenodd"
viewBox="0 0 71 79"
 xmlns:xlink="http://www.w3.org/1999/xlink">
 <defs>
  <style type="text/css">
   <![CDATA[
    .fil0 {fill:#F26B35}
   ]]>
  </style>
 </defs>
 <g id="Layer_x0020_1">
  <metadata id="CorelCorpID_0Corel-Layer"/>
  <path class="fil0" d="M0 45c-1,-11 3,-23 11,-31 14,-16 40,-17 60,-9 -5,5 -9,15 -10,18 -6,-3 -13,-4 -20,-3 -12,1 -21,9 -22,21 0,16 16,25 29,19 1,0 1,-1 2,-1l0 0c4,-3 7,-7 7,-12 0,-8 -7,-15 -15,-15 -3,0 -7,2 -9,4l0 0c0,0 -1,0 -1,0 -1,0 -1,0 -1,-1 0,0 0,-1 0,-1 5,-4 10,-6 16,-6 11,0 20,6 23,15 6,18 -10,34 -28,36 -20,2 -39,-13 -42,-34z"/>
 </g>
</svg>
