<?xml version="1.0" encoding="UTF-8"?>
<!DOCTYPE svg PUBLIC "-//W3C//DTD SVG 1.1//EN" "http://www.w3.org/Graphics/SVG/1.1/DTD/svg11.dtd">
<!-- Creator: CorelDRAW X7 -->
<svg xmlns="http://www.w3.org/2000/svg" xml:space="preserve" width="300px" height="75px" version="1.1" style="shape-rendering:geometricPrecision; text-rendering:geometricPrecision; image-rendering:optimizeQuality; fill-rule:evenodd; clip-rule:evenodd"
viewBox="0 0 300 75"
 xmlns:xlink="http://www.w3.org/1999/xlink">
 <defs>
  <style type="text/css">
   <![CDATA[
    .fil0 {fill:#FEFEFE}
    .fil1 {fill:#FEFEFE;fill-rule:nonzero}
   ]]>
  </style>
 </defs>
 <g id="Layer_x0020_1">
  <metadata id="CorelCorpID_0Corel-Layer"/>
  <path class="fil0" d="M56 71c-1,0 -1,0 -2,-1 0,0 -1,0 -1,-1l0 2 -2 0 0 -14 2 0 0 5c0,0 1,-1 1,-1 1,0 1,0 2,0 1,0 2,0 2,0 1,0 1,1 2,1 0,1 0,2 0,3l0 2c0,1 0,1 0,2 -1,1 -1,1 -2,1 0,1 -1,1 -2,1zm-3 -4l0 0c0,1 0,1 0,1 0,1 1,1 1,1 1,0 1,0 1,0 1,0 2,0 2,0 1,-1 1,-1 1,-2l0 -2c0,-1 0,-2 -1,-2 0,-1 -1,-1 -2,-1 0,0 0,0 -1,0 0,1 -1,1 -1,1 0,1 0,1 0,1l0 0 0 3z"/>
  <path class="fil0" d="M70 61l2 0 0 1c0,0 0,-1 1,-1 0,0 1,0 2,0 0,0 1,0 1,0 1,0 1,0 1,0l-1 2c0,0 0,-1 -1,-1 0,0 0,0 -1,0 -1,0 -1,0 -2,1 0,0 0,1 0,1l0 0 0 7 -2 0 0 -10z"/>
  <path class="fil0" d="M92 64c0,0 0,-1 0,-1 -1,-1 -1,-1 -2,-1 -1,0 -1,0 -2,0 0,0 0,1 -1,1l-1 -1c0,0 1,-1 2,-1 0,0 1,0 2,0 1,0 2,0 2,0 1,0 1,1 2,1 0,1 0,2 0,2l0 7 -2 0 0 -1c0,0 0,0 0,0 0,1 -1,1 -1,1 -1,0 -1,0 -2,0 -1,0 -2,0 -3,-1 0,0 -1,-1 -1,-2 0,-1 1,-2 1,-2 1,-1 2,-1 3,-1l3 0 0 -1zm0 4l0 -2 -3 0c-1,0 -1,0 -1,1 -1,0 -1,0 -1,1 0,0 0,1 1,1 0,0 1,0 2,0 1,0 1,0 2,0 0,0 0,0 0,-1z"/>
  <path class="fil0" d="M104 61l2 0 0 1c1,0 1,-1 1,-1 1,0 2,0 2,0 2,0 3,0 3,1 1,0 1,1 1,3l0 6 -2 0 0 -6c0,-1 0,-2 0,-2 -1,-1 -1,-1 -2,-1 -1,0 -2,0 -2,1 -1,0 -1,1 -1,1l0 0 0 7 -2 0 0 -10z"/>
  <path class="fil0" d="M130 57l2 0 0 14 -2 0 0 -2c0,1 -1,1 -1,1 -1,1 -1,1 -2,1 -1,0 -2,0 -2,-1 -1,0 -1,0 -2,-1 0,-1 0,-1 0,-2l0 -2c0,-1 0,-2 0,-3 1,0 1,-1 2,-1 0,0 1,0 2,0 0,0 1,0 2,0 0,0 1,1 1,1l0 -5zm0 10l0 0 0 -3 0 0c0,0 0,0 0,-1 -1,0 -1,0 -1,-1 -1,0 -1,0 -2,0 0,0 -1,0 -1,1 -1,0 -1,1 -1,2l0 2c0,1 0,1 1,2 0,0 1,0 1,0 1,0 1,0 2,0 0,0 0,0 1,-1 0,0 0,0 0,-1z"/>
  <path class="fil0" d="M142 57l2 0 0 1 -2 0 0 -1zm0 4l2 0 0 10 -2 0 0 -10z"/>
  <path class="fil0" d="M154 61l2 0 0 1c0,0 1,-1 1,-1 1,0 1,0 2,0 1,0 2,0 3,1 1,0 1,1 1,3l0 6 -2 0 0 -6c0,-1 0,-2 0,-2 -1,-1 -2,-1 -2,-1 -1,0 -2,0 -2,1 -1,0 -1,1 -1,1l0 0 0 7 -2 0 0 -10z"/>
  <path class="fil0" d="M177 75c-1,0 -2,0 -2,-1 -1,0 -2,0 -2,-1l0 0 1 -1 0 0c1,1 1,1 1,1 1,0 1,0 2,0 1,0 1,0 2,0 1,-1 1,-1 1,-2l0 -2c0,1 -1,1 -1,1 -1,1 -2,1 -2,1 -1,0 -2,0 -2,-1 -1,0 -1,0 -2,-1 0,-1 0,-1 0,-2l0 -2c0,-1 0,-2 0,-3 1,0 1,-1 2,-1 0,0 1,0 2,0 0,0 1,0 2,0 0,0 0,1 1,1l0 -1 2 0 0 9c0,1 -1,2 -1,3 0,0 -1,1 -2,1 0,1 -1,1 -2,1zm3 -8l0 0 0 -3 0 0c0,0 0,0 -1,-1 0,0 0,0 0,-1 -1,0 -1,0 -2,0 -1,0 -1,0 -2,1 0,0 0,1 0,2l0 2c0,1 0,1 0,2 1,0 1,0 2,0 1,0 1,0 2,0 0,0 0,0 0,-1 1,0 1,0 1,-1z"/>
  <path class="fil0" d="M206 64c0,0 0,-1 -1,-1 0,-1 -1,-1 -2,-1 0,0 -1,0 -1,0 -1,0 -1,1 -1,1l-2 -1c1,0 1,-1 2,-1 1,0 1,0 2,0 1,0 2,0 3,0 0,0 1,1 1,1 0,1 1,2 1,2l0 7 -2 0 0 -1c0,0 -1,0 -1,0 0,1 0,1 -1,1 0,0 -1,0 -1,0 -2,0 -3,0 -3,-1 -1,0 -1,-1 -1,-2 0,-1 0,-2 1,-2 0,-1 1,-1 2,-1l4 0 0 -1zm0 4l0 -2 -4 0c0,0 -1,0 -1,1 0,0 -1,0 -1,1 0,0 1,1 1,1 1,0 1,0 2,0 1,0 2,0 2,0 1,0 1,0 1,-1z"/>
  <path class="fil0" d="M221 75c0,0 -1,0 -2,-1 -1,0 -1,0 -1,-1l0 0 1 -1 0 0c0,1 1,1 1,1 0,0 1,0 1,0 1,0 2,0 3,0 0,-1 0,-1 0,-2l0 -2c0,1 0,1 -1,1 0,1 -1,1 -2,1 -1,0 -1,0 -2,-1 0,0 -1,0 -1,-1 -1,-1 -1,-1 -1,-2l0 -2c0,-1 0,-2 1,-3 0,0 0,-1 1,-1 1,0 1,0 2,0 1,0 2,0 2,0 1,0 1,1 1,1l0 -1 2 0 0 9c0,1 0,2 0,3 -1,0 -1,1 -2,1 -1,1 -2,1 -3,1zm3 -8l0 0 0 -3 0 0c0,0 0,0 0,-1 0,0 0,0 -1,-1 0,0 -1,0 -1,0 -1,0 -2,0 -2,1 -1,0 -1,1 -1,2l0 2c0,1 0,1 1,2 0,0 1,0 2,0 0,0 1,0 1,0 1,0 1,0 1,-1 0,0 0,0 0,-1z"/>
  <path class="fil0" d="M241 71c-1,0 -2,0 -3,-1 -1,0 -1,-1 -2,-1 0,-1 0,-2 0,-3l0 -1c0,-1 0,-2 0,-2 1,-1 1,-1 2,-2 1,0 2,0 3,0 1,0 1,0 2,0 1,1 1,1 1,2 1,1 1,1 1,3l0 0 -6 0 0 0 -1 0 0 0c0,1 0,2 0,3 1,0 2,0 3,0 0,0 1,0 1,0 1,0 1,0 1,-1l0 0 2 1 0 0c-1,1 -1,1 -2,1 -1,1 -2,1 -2,1zm-3 -6l0 0 5 0 0 0c0,-1 0,-2 0,-2 -1,-1 -2,-1 -2,-1 -1,0 -2,0 -3,1 0,0 0,1 0,2l0 0z"/>
  <path class="fil0" d="M255 61l2 0 0 1c0,0 0,-1 1,-1 0,0 1,0 2,0 1,0 2,0 3,1 0,0 1,1 1,3l0 6 -2 0 0 -6c0,-1 0,-2 -1,-2 0,-1 -1,-1 -2,-1 -1,0 -1,0 -2,1 0,0 0,1 0,1l0 0 0 7 -2 0 0 -10z"/>
  <path class="fil0" d="M278 71c-1,0 -2,0 -2,-1 -1,0 -2,0 -2,-1 0,-1 -1,-2 -1,-2l0 -2c0,-1 1,-2 1,-2 0,-1 1,-2 2,-2 0,0 1,0 2,0 1,0 1,0 2,0 0,0 1,0 1,0 1,1 1,1 1,1l0 0 -1 1 0 0c0,0 -1,0 -1,-1 -1,0 -1,0 -2,0 -1,0 -1,0 -2,1 0,0 -1,1 -1,2l0 2c0,0 1,1 1,2 1,0 1,0 2,0 1,0 1,0 2,0 0,0 1,0 1,-1l0 0 1 1 0 0c0,1 0,1 -1,1 0,0 -1,1 -1,1 -1,0 -1,0 -2,0z"/>
  <path class="fil0" d="M300 61l-5 12c0,1 0,1 -1,1 0,0 0,1 -1,1 0,0 0,0 -1,0l-1 0 0 -2 1 0c0,0 1,0 1,0 0,0 1,-1 1,-1l0 -1 -4 -10 2 0 3 8 3 -8 2 0z"/>
  <path class="fil0" d="M65 10c11,0 20,9 20,20 0,11 -9,20 -20,20 -11,0 -20,-9 -20,-20 0,-11 9,-20 20,-20zm0 8c-6,0 -12,6 -12,12 0,7 6,13 12,13 7,0 13,-6 13,-13 0,-6 -6,-12 -13,-12z"/>
  <path class="fil0" d="M126 10c5,0 10,2 13,5l0 -15 8 0 0 49 -5 0c-1,0 -3,-2 -3,-3 -3,3 -8,4 -13,4 -11,0 -20,-9 -20,-20 0,-11 9,-20 20,-20zm0 8c-7,0 -12,6 -12,12 0,7 5,13 12,13 7,0 13,-6 13,-13 0,-6 -6,-12 -13,-12z"/>
  <path class="fil0" d="M20 10c5,0 9,2 13,5 0,-2 1,-3 3,-3l4 0 0 39 0 0 0 0 0 0 0 0 0 0 0 0 0 0 0 0 0 0 0 0 0 0c0,11 -9,20 -20,20 -9,0 -16,-6 -19,-14l8 0c2,4 7,6 11,6 7,0 13,-5 13,-12l0 0 0 0 0 0 0 0 0 0 0 0 0 0 0 0c0,0 0,0 0,0l0 0 0 -5c-4,3 -8,4 -13,4 -11,0 -20,-9 -20,-20 0,-11 9,-20 20,-20zm0 8c-7,0 -12,6 -12,12 0,7 5,13 12,13 7,0 12,-6 12,-13 0,-6 -5,-12 -12,-12z"/>
  <path class="fil0" d="M92 0l0 45c0,2 2,4 4,4l4 0 0 -49 -8 0z"/>
  <path class="fil1" d="M155 0l0 9 7 0 0 -9 -7 0zm0 12l0 33c0,2 1,4 3,4l4 0 0 -37 -7 0z"/>
  <path class="fil1" d="M188 10c5,0 9,2 12,5l0 -15 8 0 0 49 -4 0c-2,0 -3,-2 -3,-3 -4,3 -8,4 -13,4 -11,0 -20,-9 -20,-20 0,-11 9,-20 20,-20zm0 8c-7,0 -12,6 -12,12 0,7 5,13 12,13 7,0 12,-6 12,-13 0,-6 -5,-12 -12,-12z"/>
  <path class="fil1" d="M233 10c11,0 20,9 20,20 0,1 0,2 0,3l-5 0 -3 0 -24 0c1,6 6,10 12,10 4,0 8,-2 10,-6l9 0c-3,8 -11,13 -19,13 -11,0 -20,-9 -20,-20 0,-11 9,-20 20,-20zm11 16c-1,-5 -6,-8 -11,-8 -5,0 -10,3 -12,8l23 0z"/>
  <path class="fil1" d="M277 10c4,0 9,2 12,5l0 -3 8 0 0 37 -4 0c-2,0 -3,-2 -4,-3 -3,3 -8,4 -12,4 -11,0 -20,-9 -20,-20 0,-11 9,-20 20,-20zm0 8c-7,0 -13,6 -13,12 0,7 6,13 13,13 6,0 12,-6 12,-13 0,-6 -6,-12 -12,-12z"/>
 </g>
</svg>
